<?xml version="1.0" standalone="no"?>
<!DOCTYPE svg PUBLIC "-//W3C//DTD SVG 20010904//EN"
 "http://www.w3.org/TR/2001/REC-SVG-20010904/DTD/svg10.dtd">
<svg version="1.0" xmlns="http://www.w3.org/2000/svg"
 width="700.000000pt" height="700.000000pt" viewBox="0 0 700.000000 700.000000"
 preserveAspectRatio="xMidYMid meet">
<metadata>
Created by potrace 1.14, written by Peter Selinger 2001-2017
</metadata>
<g transform="translate(0.000000,700.000000) scale(0.100000,-0.100000)"
fill="#000000" stroke="none">
<path d="M0 3500 l0 -3500 3500 0 3500 0 0 3500 0 3500 -3500 0 -3500 0 0
-3500z m4600 537 c0 -619 -4 -992 -11 -1063 -53 -526 -346 -849 -864 -951
-140 -28 -464 -25 -605 6 -315 68 -511 204 -625 436 -79 159 -106 326 -86 527
6 66 15 127 20 137 7 13 75 28 306 69 164 29 299 52 300 50 1 -2 -1 -34 -6
-73 -21 -182 -5 -355 41 -464 27 -60 102 -134 166 -161 106 -46 287 -50 416
-10 153 47 238 148 290 342 22 83 22 89 25 1096 l4 1012 314 0 315 0 0 -953z"/>
</g>
</svg>
